<svg width="28" height="29" viewBox="0 0 28 29" fill="none" xmlns="http://www.w3.org/2000/svg">
<path fill-rule="evenodd" clip-rule="evenodd" d="M3.61319 14.5408C2.65597 15.4821 3.32242 17.1104 4.66488 17.1104H4.99995V22.3332C4.99995 23.4378 5.89538 24.3332 6.99995 24.3332H11.2499C11.5261 24.3332 11.7499 24.1094 11.7499 23.8332V20.7433C11.7499 19.6387 12.6454 18.7433 13.7499 18.7433H14.2499C15.3545 18.7433 16.2499 19.6387 16.2499 20.7433V23.8332C16.2499 24.1094 16.4738 24.3332 16.7499 24.3332H21C22.1045 24.3332 23 23.4378 23 22.3332V17.1104H23.5994C24.9358 17.1104 25.605 15.4947 24.6601 14.5497L14.9219 4.81169C14.5337 4.42349 13.9051 4.42085 13.5136 4.80576L3.61319 14.5408Z" fill="#CCCCCC"/>
</svg>
